G75*
G70*
%OFA0B0*%
%FSLAX24Y24*%
%IPPOS*%
%LPD*%
%AMOC8*
5,1,8,0,0,1.08239X$1,22.5*
%
%ADD10R,0.0257X0.0454*%
%ADD11R,0.0454X0.0257*%
%ADD12R,0.0532X0.0198*%
%ADD13R,0.0296X0.0296*%
%ADD14R,0.0414X0.0296*%
%ADD15R,0.0611X0.0178*%
%ADD16R,0.0178X0.0611*%
%ADD17R,0.0217X0.0651*%
%ADD18R,0.0296X0.0414*%
%ADD19C,0.0620*%
%ADD20R,0.0454X0.0375*%
%ADD21R,0.0690X0.0591*%
%ADD22R,0.0296X0.0178*%
%ADD23R,0.0454X0.0611*%
%ADD24C,0.0580*%
%ADD25OC8,0.0690*%
%ADD26OC8,0.0720*%
%ADD27R,0.1060X0.1060*%
%ADD28C,0.0500*%
%ADD29R,0.0620X0.0580*%
%ADD30R,0.1044X0.0847*%
%ADD31R,0.1241X0.0257*%
%ADD32C,0.0460*%
%ADD33C,0.0500*%
%ADD34OC8,0.0540*%
%ADD35R,0.0416X0.0416*%
%ADD36C,0.0300*%
D10*
X004347Y008480D03*
X004662Y008480D03*
X004977Y008480D03*
X005292Y008480D03*
X005607Y008480D03*
X005922Y008480D03*
X006237Y008480D03*
X006552Y008480D03*
X006552Y011865D03*
X006237Y011865D03*
X005922Y011865D03*
X005607Y011865D03*
X005292Y011865D03*
X004977Y011865D03*
X004662Y011865D03*
X004347Y011865D03*
D11*
X003756Y011275D03*
X003756Y010960D03*
X003756Y010645D03*
X003756Y010330D03*
X003756Y010015D03*
X003756Y009700D03*
X003756Y009385D03*
X003756Y009070D03*
X007142Y009070D03*
X007142Y009385D03*
X007142Y009700D03*
X007142Y010015D03*
X007142Y010330D03*
X007142Y010645D03*
X007142Y010960D03*
X007142Y011275D03*
D12*
X006392Y012598D03*
X006392Y012854D03*
X006392Y013109D03*
X006392Y013365D03*
X004089Y013365D03*
X004089Y013109D03*
X004089Y012854D03*
X004089Y012598D03*
D13*
X002938Y012577D03*
X002543Y012577D03*
X002543Y011974D03*
X002938Y011974D03*
X002942Y010983D03*
X002548Y010983D03*
X002546Y010378D03*
X002941Y010378D03*
X002941Y009679D03*
X002547Y009679D03*
X002535Y008976D03*
X002929Y008976D03*
X002935Y007875D03*
X002935Y007480D03*
X002532Y007482D03*
X002532Y007876D03*
X003345Y007870D03*
X003345Y007476D03*
X004343Y007479D03*
X004343Y007874D03*
X004741Y007871D03*
X004741Y007476D03*
X005235Y007478D03*
X005235Y007872D03*
X005639Y007871D03*
X005639Y007476D03*
X006547Y007486D03*
X006939Y007479D03*
X006939Y007873D03*
X006547Y007880D03*
X008346Y007673D03*
X008346Y007278D03*
X008145Y009575D03*
X007751Y009575D03*
X007741Y010274D03*
X008135Y010274D03*
X008139Y010879D03*
X007745Y010879D03*
X002940Y013171D03*
X002545Y013171D03*
X002739Y006683D03*
X002345Y006683D03*
X006237Y004775D03*
X006631Y004775D03*
X006641Y004381D03*
X006247Y004381D03*
X006238Y003984D03*
X006632Y003984D03*
X006631Y003579D03*
X006237Y003579D03*
X007844Y002986D03*
X008239Y002986D03*
X008239Y002473D03*
X007844Y002473D03*
X009267Y002478D03*
X009661Y002478D03*
X005037Y020007D03*
X005037Y020401D03*
X005667Y020500D03*
X005667Y020106D03*
X006086Y020101D03*
X006086Y020495D03*
X006764Y020493D03*
X006764Y020098D03*
X007166Y020102D03*
X007166Y020496D03*
X007657Y020507D03*
X007657Y020112D03*
X008069Y020108D03*
X008069Y020502D03*
X002182Y020395D03*
X002182Y020000D03*
D14*
X014189Y017963D03*
X014189Y017343D03*
X014204Y016792D03*
X014204Y016172D03*
X016173Y016184D03*
X016173Y016804D03*
X016164Y017343D03*
X016164Y017963D03*
X007838Y008785D03*
X007838Y008165D03*
X007834Y007784D03*
X007834Y007164D03*
X026689Y007048D03*
X026689Y007378D03*
X027189Y007378D03*
X027189Y007048D03*
X027189Y006428D03*
X026689Y006428D03*
X026689Y007998D03*
X027189Y007998D03*
D15*
X008263Y015365D03*
X008263Y015562D03*
X008263Y015759D03*
X008263Y015956D03*
X008263Y016153D03*
X008263Y016350D03*
X008263Y016546D03*
X008263Y016743D03*
X008263Y016940D03*
X008263Y017137D03*
X008263Y017334D03*
X008263Y017531D03*
X008263Y017728D03*
X008263Y017924D03*
X008263Y018121D03*
X008263Y018318D03*
X003696Y018318D03*
X003696Y018121D03*
X003696Y017924D03*
X003696Y017728D03*
X003696Y017531D03*
X003696Y017334D03*
X003696Y017137D03*
X003696Y016940D03*
X003696Y016743D03*
X003696Y016546D03*
X003696Y016350D03*
X003696Y016153D03*
X003696Y015956D03*
X003696Y015759D03*
X003696Y015562D03*
X003696Y015365D03*
D16*
X004503Y014558D03*
X004700Y014558D03*
X004897Y014558D03*
X005094Y014558D03*
X005290Y014558D03*
X005487Y014558D03*
X005684Y014558D03*
X005881Y014558D03*
X006078Y014558D03*
X006275Y014558D03*
X006471Y014558D03*
X006668Y014558D03*
X006865Y014558D03*
X007062Y014558D03*
X007259Y014558D03*
X007456Y014558D03*
X007456Y019125D03*
X007259Y019125D03*
X007062Y019125D03*
X006865Y019125D03*
X006668Y019125D03*
X006471Y019125D03*
X006275Y019125D03*
X006078Y019125D03*
X005881Y019125D03*
X005684Y019125D03*
X005487Y019125D03*
X005290Y019125D03*
X005094Y019125D03*
X004897Y019125D03*
X004700Y019125D03*
X004503Y019125D03*
D17*
X007658Y005595D03*
X007912Y005595D03*
X008169Y005595D03*
X008423Y005595D03*
X008423Y003832D03*
X008169Y003832D03*
X007912Y003832D03*
X007658Y003832D03*
D18*
X009154Y004053D03*
X009774Y004053D03*
X011943Y003733D03*
X012563Y003733D03*
X012559Y004665D03*
X011939Y004665D03*
X011939Y005616D03*
X012559Y005616D03*
X012574Y007753D03*
X011954Y007753D03*
X011954Y008703D03*
X012574Y008703D03*
X003249Y013986D03*
X002629Y013986D03*
D19*
X002563Y014703D03*
X002564Y015703D03*
X002564Y016703D03*
X002563Y017704D03*
X002564Y018703D03*
X005745Y005288D03*
X005738Y002783D03*
D20*
X003832Y007307D03*
X003832Y008055D03*
D21*
X004257Y019814D03*
X004257Y020601D03*
X002879Y020601D03*
X002879Y019814D03*
D22*
X006287Y003077D03*
X006287Y002880D03*
X006287Y002683D03*
X006798Y002683D03*
X006798Y003077D03*
D23*
X011888Y006668D03*
X012628Y006668D03*
D24*
X024764Y020443D02*
X024764Y020963D01*
X025764Y020963D02*
X025764Y020443D01*
X026764Y020443D02*
X026764Y020963D01*
D25*
X022764Y020718D03*
X021764Y020718D03*
X020764Y020718D03*
X019764Y020718D03*
X018764Y020718D03*
X017764Y020718D03*
X016764Y020718D03*
X015764Y020718D03*
X014764Y020718D03*
X013764Y020718D03*
X013764Y002693D03*
X014764Y002693D03*
X015764Y002693D03*
X016764Y002693D03*
X017764Y002693D03*
X018764Y002693D03*
X019764Y002693D03*
X020764Y002693D03*
X021764Y002693D03*
X022764Y002693D03*
D26*
X024791Y003703D03*
X026760Y003703D03*
X026770Y016676D03*
X024801Y016676D03*
D27*
X015180Y017493D03*
D28*
X014179Y014949D03*
X016178Y014945D03*
D29*
X015530Y014958D03*
X014840Y014958D03*
D30*
X002540Y002348D03*
X004685Y002348D03*
X004705Y005989D03*
X002540Y005989D03*
D31*
X004705Y004808D03*
X004705Y004493D03*
X004705Y004178D03*
X004705Y003863D03*
X004705Y003548D03*
D32*
X003642Y003312D03*
X003642Y005044D03*
D33*
X013764Y009973D02*
X013764Y010413D01*
X014764Y010413D02*
X014764Y009973D01*
X015764Y009973D02*
X015764Y010413D01*
X016764Y010413D02*
X016764Y009973D01*
X017764Y009973D02*
X017764Y010413D01*
X018764Y010413D02*
X018764Y009973D01*
X019764Y009973D02*
X019764Y010413D01*
X020764Y010413D02*
X020764Y009973D01*
X021764Y009973D02*
X021764Y010413D01*
X022764Y010413D02*
X022764Y009973D01*
X022764Y012973D02*
X022764Y013413D01*
X021764Y013413D02*
X021764Y012973D01*
X020764Y012973D02*
X020764Y013413D01*
X019764Y013413D02*
X019764Y012973D01*
X018764Y012973D02*
X018764Y013413D01*
X017764Y013413D02*
X017764Y012973D01*
X016764Y012973D02*
X016764Y013413D01*
X015764Y013413D02*
X015764Y012973D01*
X014764Y012973D02*
X014764Y013413D01*
X013764Y013413D02*
X013764Y012973D01*
D34*
X010764Y015703D03*
X009764Y015703D03*
X009764Y016703D03*
X010764Y016703D03*
X010764Y017703D03*
X009764Y017703D03*
X009764Y018703D03*
X010764Y018703D03*
X010764Y019703D03*
X009764Y019703D03*
X024764Y007703D03*
X024764Y006703D03*
X025764Y006703D03*
X025764Y007703D03*
D35*
X011516Y021256D03*
X011016Y021256D03*
X010512Y021256D03*
X010016Y021256D03*
X009512Y021256D03*
X009016Y021256D03*
D36*
X009659Y020513D03*
X010264Y020513D03*
X010764Y020508D03*
X011289Y020503D03*
X011989Y020253D03*
X010789Y019203D03*
X009739Y019203D03*
X009539Y018203D03*
X008614Y019603D03*
X008389Y020303D03*
X007259Y019678D03*
X006439Y020103D03*
X006439Y020753D03*
X005364Y020503D03*
X005339Y020078D03*
X005364Y019678D03*
X005089Y018278D03*
X004239Y017528D03*
X003639Y018678D03*
X002239Y019428D03*
X002439Y021228D03*
X005289Y021203D03*
X007059Y018578D03*
X006939Y018203D03*
X007689Y018053D03*
X007689Y017653D03*
X007714Y017153D03*
X007714Y016728D03*
X006989Y016478D03*
X007714Y015878D03*
X006914Y015128D03*
X005589Y015853D03*
X005939Y016878D03*
X005689Y017403D03*
X004239Y015703D03*
X003989Y014753D03*
X004164Y014203D03*
X003714Y013928D03*
X004539Y013928D03*
X004524Y013368D03*
X005464Y013978D03*
X005814Y013978D03*
X006164Y013978D03*
X006939Y013928D03*
X006939Y013403D03*
X005864Y013003D03*
X005764Y012353D03*
X005964Y011353D03*
X006439Y011178D03*
X006439Y010653D03*
X005439Y010478D03*
X005414Y010103D03*
X005239Y010878D03*
X004839Y010878D03*
X004579Y011138D03*
X004239Y011078D03*
X004339Y011418D03*
X003689Y012003D03*
X003339Y011768D03*
X003339Y012278D03*
X003589Y012579D03*
X003339Y013108D03*
X004339Y012303D03*
X003264Y010978D03*
X002739Y011578D03*
X004239Y010328D03*
X004664Y009353D03*
X004659Y008968D03*
X004959Y008968D03*
X005439Y008978D03*
X007039Y008453D03*
X007339Y008078D03*
X007839Y008478D03*
X008239Y008478D03*
X008239Y008878D03*
X008664Y008478D03*
X006939Y007078D03*
X006639Y006778D03*
X007039Y006303D03*
X008014Y006328D03*
X008789Y006328D03*
X008139Y004978D03*
X008139Y004468D03*
X007114Y003678D03*
X007114Y003078D03*
X006279Y002378D03*
X007189Y002078D03*
X005939Y003278D03*
X005869Y003978D03*
X005539Y004493D03*
X004639Y005278D03*
X005714Y006153D03*
X006639Y005178D03*
X008764Y003328D03*
X008764Y002078D03*
X011164Y003028D03*
X013014Y004328D03*
X013239Y003628D03*
X014239Y003628D03*
X015239Y003628D03*
X016239Y003628D03*
X017239Y004128D03*
X018239Y004128D03*
X019239Y004128D03*
X020239Y004128D03*
X021239Y004128D03*
X022239Y004128D03*
X023839Y004953D03*
X025764Y004953D03*
X023864Y007178D03*
X023264Y009203D03*
X022239Y009203D03*
X021239Y009203D03*
X020259Y009203D03*
X019239Y009203D03*
X018239Y009203D03*
X017239Y009203D03*
X016239Y009203D03*
X015239Y009053D03*
X014239Y009053D03*
X013189Y008103D03*
X013189Y006153D03*
X007889Y010578D03*
X007819Y011365D03*
X008139Y011878D03*
X008164Y012303D03*
X007189Y011603D03*
X009964Y014273D03*
X010269Y015403D03*
X008964Y015878D03*
X008959Y016523D03*
X008414Y014603D03*
X011589Y012953D03*
X013214Y011703D03*
X015064Y011278D03*
X015064Y012253D03*
X015239Y014178D03*
X016239Y014178D03*
X017339Y014178D03*
X018239Y014178D03*
X019214Y014178D03*
X020239Y014178D03*
X021239Y014178D03*
X022239Y014178D03*
X023239Y014178D03*
X022254Y012233D03*
X022254Y011233D03*
X025764Y009478D03*
X025789Y015178D03*
X027039Y018028D03*
X023239Y019653D03*
X021239Y019628D03*
X020239Y019628D03*
X019239Y019628D03*
X018289Y017603D03*
X017364Y017603D03*
X016264Y018803D03*
X015189Y018303D03*
X015264Y020053D03*
X014264Y020028D03*
X013054Y017888D03*
X011564Y018203D03*
X015189Y016353D03*
X014214Y014178D03*
X007739Y018628D03*
X003214Y014753D03*
X002139Y013978D03*
X002239Y009678D03*
X002114Y009278D03*
X003264Y009653D03*
X003839Y007678D03*
X004314Y007003D03*
X003839Y006878D03*
X003509Y006878D03*
X003239Y007078D03*
X003514Y006453D03*
X002114Y007478D03*
X002139Y004178D03*
X003339Y004178D03*
X003914Y004178D03*
X004664Y003103D03*
X023839Y002253D03*
X025764Y002228D03*
M02*
